<svg width="614" height="480" viewBox="0 0 614 480" fill="none" xmlns="http://www.w3.org/2000/svg">
<path d="M308.811 455.232L538.677 320.832C540.341 319.856 541.732 318.445 542.714 316.739C543.696 315.032 544.234 313.089 544.276 311.099C544.317 309.11 543.861 307.143 542.953 305.394C542.044 303.644 540.713 302.171 539.092 301.12L316.21 157.136C314.519 156.043 312.574 155.45 310.585 155.419C308.595 155.388 306.634 155.921 304.912 156.96L61.7991 304C60.136 305.008 58.7559 306.453 57.7965 308.191C56.8372 309.929 56.3323 311.899 56.3323 313.904C56.3323 315.909 56.8372 317.879 57.7965 319.617C58.7559 321.355 60.136 322.8 61.7991 323.808L278.618 455.008C283.198 457.778 288.391 459.256 293.686 459.295C298.981 459.334 304.194 457.934 308.811 455.232V455.232Z" fill="#FFD49C"/>
<path style="mix-blend-mode:multiply" opacity="0.32" d="M295.656 360.24L215.928 406.352L199.412 382.96L272.908 343.168" fill="url(#paint0_linear)"/>
<path style="mix-blend-mode:multiply" opacity="0.32" d="M512.782 315.824L433.07 361.936L416.553 338.544L495.406 294.64" fill="url(#paint1_linear)"/>
<path style="mix-blend-mode:multiply" opacity="0.32" d="M466.394 295.008L386.682 341.12L254.749 257.44L308.55 197.2" fill="url(#paint2_linear)"/>
<path d="M399.039 280.576L398.732 329.152L403.475 331.664L406.038 322.8V289.92V282.352" fill="#EDEFDF"/>
<path d="M408.586 287.424V328.592L403.475 331.664V282.352L408.586 287.424Z" fill="#FEFFFA"/>
<path d="M456.847 246.864L456.555 295.424L461.283 297.952L463.846 289.072V256.192V248.624" fill="#EDEFDF"/>
<path d="M466.394 253.696V294.864L461.283 297.952V248.624L466.394 253.696Z" fill="#FEFFFA"/>
<path d="M331.238 170.64L466.394 252.416L408.586 287.424L272.908 206L331.238 170.64Z" fill="#FEFFFA"/>
<path d="M272.908 206V199.792L282.072 204.208L281.289 207.056" fill="#FEFFFA"/>
<path d="M466.394 252.416V246.192L458.95 248.256L462.68 251.888" fill="#FEFFFA"/>
<path d="M331.238 164.432L466.394 246.192L408.586 281.216L272.908 199.792L331.238 164.432Z" fill="#FEFFFA"/>
<path d="M331.238 164.432L466.394 246.192L408.586 281.216L272.908 199.792L331.238 164.432Z" fill="#78A9F8"/>
<path d="M272.908 199.792V193.568L282.072 198L281.289 200.832" fill="#78A9F8"/>
<path d="M466.394 246.192V239.984L458.95 242.048L462.68 245.664" fill="#78A9F8"/>
<path d="M331.238 158.224L466.394 239.984L408.586 274.992L272.908 193.568L331.238 158.224Z" fill="#AECFFF"/>
<path d="M272.877 203.488L272.57 252.064L277.313 254.576L279.861 245.712V212.832V205.264" fill="#EDEFDF"/>
<path d="M282.425 210.336V251.504L277.313 254.576V205.264L282.425 210.336Z" fill="#FEFFFA"/>
<path d="M401.172 71.664V148.912L375.277 132.384V56.784L401.172 71.664Z" fill="#68E1FD"/>
<path d="M418.855 107.008V133.216L357.594 95.776V70.016L418.855 107.008Z" fill="#68E1FD"/>
<path d="M243.267 39.52L237.25 38.064L170.661 78.032L171.767 214.72L174.269 216.16" fill="#DD654A"/>
<path d="M243.267 39.52L244.034 174.4L174.269 216.16V80.192L243.267 39.52Z" fill="#F8997C"/>
<path d="M240.811 46.832V172.48L177.431 209.072V84.176L240.811 46.832Z" fill="#FDF2D6"/>
<path d="M215.959 101.728L216.297 101.632V102.608L211.247 105.264V104.288L211.677 103.968L212.091 103.648C212.202 103.557 212.305 103.455 212.398 103.344L212.521 103.104V102.848L212.429 102.56L211.753 100.016C211.742 99.9466 211.705 99.8844 211.651 99.8427C211.596 99.8009 211.529 99.7827 211.462 99.792C211.29 99.8139 211.124 99.8681 210.97 99.952L208.791 101.104C208.639 101.175 208.507 101.283 208.405 101.42C208.304 101.557 208.236 101.718 208.207 101.888L207.747 104.544V104.832V105.152C207.747 105.76 208.177 105.856 209.021 105.408V106.496L205.537 108.32V107.2C206.211 106.643 206.652 105.834 206.765 104.944L210.188 89.696L211.584 89.296L215.192 101.344C215.217 101.464 215.281 101.571 215.373 101.647C215.466 101.723 215.581 101.763 215.698 101.76L215.959 101.728ZM210.955 98.528C211.201 98.4 211.324 98.304 211.308 98.24C211.236 97.8549 211.138 97.4754 211.017 97.104L209.942 93.6L208.76 98.832C208.683 99.0935 208.627 99.361 208.591 99.632C208.591 99.76 208.76 99.728 209.067 99.632L210.894 98.672" fill="#494137"/>
<path d="M221.562 127.328C221.682 127.313 221.8 127.287 221.915 127.248V128.224L216.865 130.88V129.904L217.31 129.584L217.724 129.264C217.834 129.171 217.937 129.07 218.031 128.96L218.154 128.72V128.464L218.062 128.16L217.387 125.616C217.372 125.546 217.332 125.485 217.274 125.446C217.217 125.408 217.147 125.394 217.08 125.408C216.908 125.43 216.742 125.484 216.589 125.568L214.409 126.704C214.261 126.776 214.131 126.882 214.03 127.016C213.928 127.149 213.858 127.305 213.826 127.472L213.365 130.144V130.416V130.752C213.365 131.36 213.795 131.44 214.639 131.008V132.096L211.277 133.856H211.155V132.8C211.834 132.24 212.275 131.424 212.383 130.528L215.806 115.28L217.203 114.848L220.81 126.896C220.837 127.024 220.908 127.138 221.009 127.216C221.099 127.284 221.206 127.323 221.316 127.328C221.398 127.337 221.48 127.337 221.562 127.328ZM216.573 124.128C216.803 124 216.926 123.92 216.926 123.856C216.854 123.471 216.756 123.091 216.635 122.72L215.575 119.216L214.424 124.352C214.352 124.614 214.3 124.881 214.271 125.152C214.271 125.264 214.424 125.264 214.731 125.152L216.573 124.192" fill="#494137"/>
<path d="M210.832 132.96H211.063V133.952L206.135 136.544V135.52L206.58 135.2L206.995 134.88C207.105 134.788 207.208 134.686 207.302 134.576L207.425 134.336V134.08L207.332 133.776L206.611 131.2C206.596 131.13 206.556 131.069 206.498 131.03C206.441 130.992 206.371 130.978 206.304 130.992C206.133 131.008 205.967 131.057 205.813 131.136L203.633 132.288C203.484 132.357 203.352 132.464 203.251 132.597C203.149 132.731 203.08 132.888 203.05 133.056L202.589 135.728V136V136.32C202.589 136.928 203.019 137.024 203.863 136.576V137.664L200.379 139.488V138.4C201.058 137.84 201.5 137.024 201.607 136.128L205.03 120.88L206.427 120.448L210.034 132.496C210.065 132.623 210.135 132.735 210.234 132.816C210.324 132.88 210.431 132.913 210.541 132.912C210.635 132.943 210.733 132.96 210.832 132.96V132.96ZM205.844 129.76C206.074 129.632 206.212 129.536 206.197 129.472C206.119 129.088 206.021 128.709 205.905 128.336L204.83 124.832L203.695 129.968C203.619 130.23 203.563 130.497 203.526 130.768C203.526 130.88 203.679 130.88 203.986 130.768L205.828 129.808" fill="#494137"/>
<path d="M205.936 164.096L206.289 164.016V164.992L201.239 167.648V166.672L201.668 166.352L202.083 166.032C202.194 165.941 202.297 165.839 202.39 165.728L202.513 165.488V165.232L202.42 164.928L201.745 162.384C201.74 162.35 201.728 162.318 201.71 162.289C201.692 162.26 201.669 162.235 201.642 162.215C201.614 162.196 201.584 162.183 201.551 162.176C201.519 162.169 201.486 162.169 201.453 162.176C201.282 162.198 201.115 162.252 200.962 162.336L198.783 163.488C198.633 163.557 198.502 163.663 198.4 163.797C198.299 163.931 198.23 164.088 198.199 164.256L197.739 166.928V167.2V167.52C197.739 168.144 198.169 168.224 199.013 167.792V168.88L195.528 170.704V169.6C196.203 169.043 196.644 168.234 196.756 167.344L200.087 152L201.484 151.584L205.091 163.632C205.116 163.753 205.179 163.862 205.272 163.941C205.364 164.02 205.479 164.063 205.598 164.064C205.708 164.092 205.822 164.103 205.936 164.096V164.096ZM200.932 160.976C201.177 160.848 201.3 160.752 201.285 160.688C201.212 160.303 201.115 159.923 200.993 159.552L199.918 156.048L198.783 161.184C198.707 161.446 198.651 161.713 198.614 161.984C198.614 162.096 198.783 162.08 199.09 161.984L200.916 161.024" fill="#494137"/>
<path d="M216.189 153.744C216.33 154.264 216.397 154.803 216.389 155.344C216.409 156.14 216.306 156.934 216.082 157.696C215.892 158.344 215.602 158.955 215.222 159.504C214.866 160.003 214.442 160.445 213.964 160.816C213.48 161.188 212.967 161.514 212.429 161.792L209.835 163.104L206.964 164.56V163.568C207.347 163.43 207.683 163.177 207.928 162.842C208.174 162.506 208.319 162.102 208.346 161.68L208.253 150.624C208.253 149.632 207.747 149.408 206.718 149.904V148.896L211.876 146.192C212.293 145.901 212.762 145.699 213.255 145.597C213.747 145.495 214.254 145.496 214.747 145.6C215.391 145.824 215.714 146.64 215.729 148.032C215.758 148.924 215.574 149.809 215.192 150.608C214.803 151.382 214.283 152.076 213.657 152.656C214.036 152.542 214.429 152.483 214.823 152.48C215.136 152.485 215.438 152.597 215.683 152.8C215.931 153.061 216.106 153.387 216.189 153.744V153.744ZM213.365 159.408C213.851 158.019 213.946 156.515 213.641 155.072C213.579 154.764 213.402 154.494 213.15 154.32C212.875 154.203 212.566 154.203 212.291 154.32C211.86 154.444 211.443 154.615 211.047 154.832C210.817 154.944 210.709 155.248 210.725 155.744V160.768C210.725 161.024 210.817 161.152 211.001 161.2C211.327 161.188 211.644 161.089 211.922 160.912C212.543 160.602 213.046 160.084 213.35 159.44L213.365 159.408ZM210.709 148.8V153.296C210.709 153.648 210.817 153.76 211.047 153.632C211.458 153.424 211.845 153.166 212.198 152.864C212.484 152.63 212.72 152.335 212.889 152C213.051 151.664 213.155 151.301 213.196 150.928C213.225 150.47 213.225 150.01 213.196 149.552C213.241 148.88 213.136 148.207 212.889 147.584C212.69 147.2 212.291 147.184 211.707 147.488C211.39 147.631 211.104 147.838 210.863 148.096C210.696 148.277 210.603 148.517 210.602 148.768" fill="#494137"/>
<path d="M222.099 140.64C222.338 140.517 222.584 140.411 222.836 140.32C223.092 140.241 223.354 140.182 223.619 140.144C223.858 140.103 224.101 140.103 224.34 140.144C224.558 140.178 224.76 140.278 224.924 140.432C225.125 139.754 225.483 139.139 225.967 138.64C226.409 140.382 226.606 142.183 226.551 143.984L225.507 144.528C225.413 143.473 225.053 142.463 224.463 141.6C224.229 141.374 223.928 141.237 223.61 141.214C223.291 141.191 222.975 141.282 222.713 141.472C222.207 141.741 221.781 142.15 221.485 142.656C221.159 143.214 220.911 143.817 220.748 144.448C220.563 145.165 220.445 145.899 220.395 146.64C220.327 147.422 220.296 148.207 220.303 148.992C220.303 150.048 220.303 151.008 220.441 151.888C220.503 152.631 220.658 153.363 220.902 154.064C221.048 154.546 221.353 154.96 221.761 155.232C221.985 155.325 222.227 155.362 222.467 155.34C222.707 155.318 222.939 155.237 223.143 155.104C223.911 154.678 224.537 154.02 224.939 153.216C225.513 152.028 225.926 150.762 226.167 149.456H226.812C226.684 150.26 226.495 151.052 226.244 151.824C226.012 152.54 225.714 153.232 225.353 153.888C225.032 154.467 224.646 155.005 224.202 155.488C223.806 155.917 223.345 156.274 222.836 156.544C222.139 156.968 221.341 157.179 220.533 157.152C220.235 157.124 219.945 157.033 219.681 156.885C219.417 156.736 219.185 156.533 218.998 156.288C218.557 155.68 218.258 154.973 218.124 154.224C217.927 153.235 217.829 152.226 217.832 151.216C217.819 150.044 217.891 148.873 218.047 147.712C218.175 146.667 218.423 145.641 218.784 144.656C219.109 143.767 219.565 142.936 220.134 142.192C220.682 141.542 221.35 141.014 222.099 140.64V140.64Z" fill="#494137"/>
<path d="M520.288 291.04C520.288 291.04 519.49 317.36 507.609 317.984C495.728 318.608 494.93 291.04 494.93 291.04" fill="#6DE1FC"/>
<path d="M520.288 291.04C520.288 291.04 519.49 317.36 507.609 317.984C495.728 318.608 494.93 291.04 494.93 291.04" fill="#68E1FD"/>
<path d="M507.609 296.016C514.612 296.016 520.288 293.788 520.288 291.04C520.288 288.292 514.612 286.064 507.609 286.064C500.607 286.064 494.93 288.292 494.93 291.04C494.93 293.788 500.607 296.016 507.609 296.016Z" fill="#311E69"/>
<path d="M511.063 294.4C513.411 283.663 517.418 273.396 522.929 264C523.389 263.216 524.909 263.888 524.464 264.672C518.996 273.976 515.02 284.147 512.69 294.784C512.583 295.632 510.879 295.28 511.063 294.4Z" fill="#311E69"/>
<path d="M503.818 296.096C504.694 283.319 506.205 270.598 508.346 257.984C508.484 257.136 510.265 257.136 510.111 257.984C507.973 270.566 506.462 283.255 505.583 296L503.818 296.096Z" fill="#311E69"/>
<path d="M526.843 261.6C528.923 261.183 531.071 261.315 533.09 261.984C534.518 262.464 537.465 263.824 536.882 265.28C536.298 266.736 532.722 266.512 531.294 266.192C530.301 265.984 529.356 265.573 528.516 264.983C527.675 264.392 526.955 263.634 526.398 262.752C526.391 262.699 526.391 262.645 526.398 262.592C526.106 262.224 526.198 261.728 526.843 261.6Z" fill="#C3EA75"/>
<path d="M524.064 260.8C524.187 260.998 524.379 261.139 524.6 261.192C524.82 261.246 525.052 261.209 525.246 261.088C527.18 260.016 529.606 259.328 530.972 257.744C531.924 256.64 532.323 254.816 530.588 254.016C529.758 253.697 528.861 253.61 527.989 253.765C527.116 253.919 526.298 254.309 525.615 254.896C524.08 256.288 523.88 258.304 523.512 260.032C523.435 260.4 523.711 260.672 524.064 260.8ZM527.718 255.232V255.408C527.136 255.754 526.617 256.204 526.183 256.736C526.554 256.093 527.091 255.572 527.733 255.232H527.718Z" fill="#C3EA75"/>
<path d="M518.922 257.264C521.777 256.288 522.269 260 522.345 261.248C522.345 261.6 522.1 261.792 521.762 261.872C521.579 261.995 521.366 262.06 521.148 262.06C520.93 262.06 520.717 261.995 520.534 261.872C519.567 261.216 518.354 260.592 518.047 259.584C517.954 259.372 517.903 259.143 517.896 258.911C517.89 258.678 517.929 258.446 518.01 258.23C518.092 258.013 518.215 257.816 518.372 257.65C518.528 257.484 518.716 257.353 518.922 257.264V257.264Z" fill="#C3EA75"/>
<path d="M508.085 255.536C508.238 255.751 508.458 255.904 508.707 255.968C508.957 256.032 509.22 256.004 509.451 255.888C509.603 255.918 509.759 255.918 509.912 255.888C512.122 255.632 513.243 252.976 513.642 251.584C514.041 250.192 514.471 247.904 512.26 247.168C511.352 246.87 510.372 246.922 509.498 247.316C508.624 247.709 507.915 248.418 507.502 249.312C507.172 250.334 507.053 251.416 507.154 252.489C507.254 253.562 507.572 254.6 508.085 255.536V255.536ZM509.282 253.648C509.225 253.293 509.225 252.931 509.282 252.576C509.264 252.821 509.264 253.067 509.282 253.312V253.648Z" fill="#C3EA75"/>
<path d="M496.48 255.904C496.404 257.616 498.645 258.32 500.517 258.592C501.669 258.768 505.813 259.536 505.89 258C506.003 257.919 506.082 257.796 506.11 257.656C506.139 257.516 506.115 257.37 506.044 257.248C505.123 255.648 502.973 254.896 500.824 254.464C499.044 254.112 496.557 254.032 496.48 255.904ZM498.215 255.904C498.284 256.001 498.361 256.092 498.445 256.176C498.379 256.264 498.336 256.369 498.322 256.48C498.267 256.45 498.22 256.408 498.183 256.356C498.146 256.304 498.122 256.244 498.111 256.18C498.101 256.116 498.105 256.051 498.123 255.989C498.141 255.927 498.172 255.871 498.215 255.824V255.904Z" fill="#C3EA75"/>
<path d="M512.368 257.232C512.474 257.412 512.632 257.554 512.819 257.637C513.006 257.72 513.213 257.741 513.412 257.696C514.599 257.594 515.749 257.211 516.773 256.576C517.495 256.048 517.878 255.088 517.28 254.4C515.914 252.8 512.767 255.472 511.953 256.304C511.57 256.704 511.892 257.088 512.368 257.232ZM514.854 255.968H514.701L515.591 255.52C515.375 255.732 515.119 255.895 514.839 256L514.854 255.968Z" fill="#C3EA75"/>
<path d="M131.427 146.144C128.249 162.56 116.307 174.192 104.779 172.112C93.2513 170.032 86.4666 155.056 89.644 138.64C92.8215 122.224 104.764 110.592 116.292 112.672C127.819 114.752 134.62 129.744 131.427 146.144Z" fill="#56403D"/>
<path d="M133.975 147.2C130.797 163.616 118.855 175.248 107.327 173.168C95.7994 171.088 89.03 156.064 92.1921 139.664C95.3542 123.264 107.312 111.616 118.84 113.696C130.368 115.776 137.152 130.752 133.975 147.2Z" fill="#FFDAC0"/>
<path d="M131.396 146.704C128.602 161.104 118.149 171.28 108.033 169.456C97.9177 167.632 91.9926 154.512 94.7709 140.128C97.5493 125.744 108.018 115.552 118.195 117.36C128.372 119.168 134.174 132.32 131.396 146.704Z" fill="#68E1FD"/>
<path d="M119.101 140.08L114.925 143.36L116.015 127.808C116.2 125.2 111.779 124.864 111.594 127.472L110.152 147.904C110.141 148.303 110.253 148.695 110.471 149.024C110.689 149.352 111.002 149.599 111.364 149.728C111.733 149.942 112.153 150.041 112.574 150.016C112.995 149.99 113.401 149.841 113.744 149.584V149.584L121.94 143.184C124.182 141.488 121.265 138.384 119.101 140.08Z" fill="#56403D"/>
<path d="M412.209 157.6C412.209 158.144 406.975 168.24 409.738 172.48C412.501 176.72 429.386 173.984 429.386 173.984" fill="#FBAE17"/>
<path d="M432.87 149.12C433.238 149.952 437.982 163.136 443.262 168.24C448.542 173.344 453.147 170.576 453.639 178.544C454.13 186.512 447.913 190.576 451.382 194.544C454.851 198.512 452.533 208.944 442.08 211.008C431.627 213.072 420.222 185.28 420.237 183.456" fill="#FBAE17"/>
<path d="M388.601 207.232C388.601 207.232 383.228 219.408 380.711 222.672C378.193 225.936 373.128 231.536 373.757 232.512C374.354 233.184 375.095 233.698 375.92 234.012C376.744 234.326 377.629 234.432 378.5 234.32C380.711 234.16 384.502 226.912 384.18 228.064C383.857 229.216 382.752 235.504 384.026 234.336C385.3 233.168 385.439 227.408 386.636 225.76C387.833 224.112 399.1 207.232 399.1 207.232" fill="#FFD0B0"/>
<path d="M362.383 322.912L357.455 319.504C357.455 319.504 357.655 314.624 359.604 313.888C361.554 313.152 362.383 322.912 362.383 322.912Z" fill="#6B2215"/>
<path d="M357.348 292.912C357.348 292.912 351.055 313.92 350.118 315.024C349.182 316.128 338.176 324.784 337.071 326.752C335.966 328.72 346.557 328.848 350.671 328.352C354.785 327.856 358.76 326.304 359.098 324.768C359.436 323.232 358.852 315.04 360.295 315.424C361.738 315.808 362.368 322.896 362.368 322.896L366.144 321.296L370.38 292.208" fill="#6B2215"/>
<path d="M381.494 330.992L376.566 327.584C376.566 327.584 376.766 322.704 378.715 321.968C380.665 321.232 381.494 330.992 381.494 330.992Z" fill="#6B2215"/>
<path d="M376.459 300.976C376.459 300.976 370.165 321.984 369.229 323.088C368.293 324.192 357.287 332.848 356.181 334.816C355.076 336.784 365.668 336.912 369.782 336.416C373.895 335.92 377.871 334.368 378.209 332.832C378.546 331.296 377.963 323.104 379.406 323.488C380.849 323.872 381.478 330.96 381.478 330.96L385.254 329.36L389.491 300.272" fill="#6B2215"/>
<path d="M421.695 203.6C423.675 205.344 413.483 227.024 411.334 239.712C409.185 252.4 380.388 259.504 380.388 259.504L372.437 311.312C365.301 310.993 358.214 309.921 351.285 308.112C351.285 308.112 359.451 247.776 362.46 241.184C365.468 234.592 408.51 208.832 408.51 208.832" fill="#B7B3AE"/>
<path d="M429.125 207.536C431.105 209.28 437.352 223.536 431.197 241.984C427.145 254.144 401.664 264.208 401.664 264.208L389.383 314.064C383.539 316.663 376.979 316.919 370.964 314.784C370.964 314.784 375.338 258.16 378.347 251.568C381.355 244.976 413.775 220.352 413.775 220.352" fill="#B7B3AE"/>
<path d="M419.976 216.608C419.976 216.608 402.999 228.352 401.172 229.04C399.346 229.728 388.892 234.272 390.535 234.496C392.324 234.616 394.118 234.616 395.907 234.496C395.907 234.496 389.199 241.232 390.366 243.088C391.532 244.944 396.137 245.568 398.133 244.944C400.128 244.32 404.273 238.064 405.102 237.44C405.931 236.816 428.127 225.136 428.127 225.136" fill="#FFD0B0"/>
<path d="M428.91 170.976C423.714 168.734 418.058 167.903 412.47 168.56C409.739 168.851 407.16 170.013 405.087 171.888C402.431 174.464 401.357 178.288 399.914 181.712C397.725 186.55 395.285 191.261 392.607 195.824C390.358 200.284 387.793 204.563 384.932 208.624L393.436 215.28L406.284 199.648L425.425 209.952L408.387 219.024C406.959 221.76 419.393 230.064 419.393 230.064C419.393 230.064 438.488 228.016 442.418 207.984C448.128 179.52 428.94 170.992 428.91 170.976Z" fill="#63CEBC"/>
<path d="M405.808 192.336C405.808 192.336 405.194 210.416 406.207 212.4C407.22 214.384 425.487 222.672 425.487 222.672L436.953 207.872L405.808 192.336Z" fill="#63CEBC"/>
<path d="M412.286 153.088C412.286 153.088 411.242 169.088 417.459 171.152C423.675 173.216 427.421 165.296 427.421 165.296C427.421 165.296 429.263 154.576 427.329 152.192C425.395 149.808 415.847 148.8 412.286 153.088Z" fill="#FFD0B0"/>
<path d="M415.985 143.744C414.445 144.537 413.06 145.622 411.902 146.944C411.025 147.878 410.335 148.984 409.871 150.198C409.407 151.412 409.179 152.71 409.2 154.016C409.228 154.338 409.326 154.649 409.485 154.926C409.645 155.203 409.862 155.439 410.121 155.616C410.632 155.871 411.203 155.965 411.764 155.888L414.036 156.016L419.27 156.304C420.173 156.255 421.078 156.303 421.971 156.448C421.971 156.448 425.886 165.872 424.811 169.424C424.811 169.424 429.953 168.416 432.486 160.64C434.313 155.216 434.359 147.344 429.063 143.984C427.052 142.885 424.822 142.291 422.551 142.25C420.281 142.208 418.032 142.72 415.985 143.744V143.744Z" fill="#FBAE17"/>
<path d="M407.236 186.624C407.154 194.965 407.246 203.307 407.512 211.648C407.512 212.592 406.13 212.576 406.1 211.648C405.844 203.307 405.752 194.965 405.823 186.624C405.823 186.429 405.898 186.242 406.03 186.104C406.163 185.966 406.342 185.888 406.529 185.888C406.717 185.888 406.896 185.966 407.029 186.104C407.161 186.242 407.236 186.429 407.236 186.624Z" fill="#246D5F"/>
<path d="M408.74 218.448C413.335 216.336 417.394 213.135 420.592 209.099C423.79 205.062 426.039 200.303 427.16 195.2C427.359 194.272 428.695 194.672 428.526 195.6C427.369 200.882 425.049 205.81 421.751 209.998C418.454 214.185 414.267 217.516 409.523 219.728C408.617 220.112 407.911 218.832 408.74 218.448Z" fill="#246D5F"/>
<path d="M371.163 311.328C371.163 311.328 375.323 255.408 378.27 251.568C381.217 247.728 395.892 234.496 395.892 234.496C395.892 234.496 377.349 245.136 375.538 250.496C373.726 255.856 367.755 310.4 367.755 310.4L371.163 311.328Z" fill="#6D665E"/>
<path d="M253.444 148.912L263.391 141.056C263.391 141.056 277.927 141.52 277.497 142.464C277.068 143.408 288.058 167.168 288.058 167.168L285.894 218.608L267.888 229.904" fill="white"/>
<path d="M280.23 331.408C280.23 331.408 281.181 344.8 283.407 346.768C285.633 348.736 294.474 355.808 295.994 356.96C297.514 358.112 296.071 361.936 290.852 361.936C285.633 361.936 275.655 355.536 275.655 355.536L268.287 352.688C268.287 352.688 267.259 339.712 268.84 331.728C270.421 323.744 280.23 331.408 280.23 331.408Z" fill="#4A2B0F"/>
<path d="M255.317 353.056C255.317 353.056 260.505 379.168 257.097 381.184C253.69 383.2 245.984 378.864 244.817 374.384C243.651 369.904 244.08 343.328 244.817 343.168" fill="#4A2B0F"/>
<path d="M287.183 239.6L285.894 336.496C285.894 336.496 274.427 340.56 263.56 336.496L265.709 244.8L259.415 357.472C256.334 358.813 253.029 359.503 249.691 359.503C246.352 359.503 243.047 358.813 239.967 357.472L241.993 231.312L285.924 218.624L287.183 239.6Z" fill="#68E1FD"/>
<path d="M271.158 140.56C271.158 140.56 283.223 136.992 289.117 151.344C297.115 170.784 297.514 281.984 297.514 281.984C293.857 285.692 289.298 288.287 284.328 289.488C284.328 289.488 283.3 174.72 282.425 167.472C280.982 155.488 271.158 140.56 271.158 140.56Z" fill="#DBDBDB"/>
<path d="M280.368 141.456C280.368 141.456 287.168 149.888 286.661 149.888C286.155 149.888 284.221 152.432 284.221 152.432L288.073 156.304L283.146 210.704C283.146 210.704 286.723 171.232 271.142 140.736C271.127 140.672 277.835 139.84 280.368 141.456Z" fill="#EEF3F7"/>
<path d="M259.553 143.808C259.553 143.808 247.473 148.192 244.326 159.808C241.087 171.728 240.581 291.728 240.581 292.992C240.581 294.256 248.256 299.264 254.749 300.256C261.242 301.248 270.774 297.408 270.774 297.408L272.509 227.424C272.509 227.424 271.695 187.2 270.789 179.488C269.884 171.776 259.553 143.808 259.553 143.808Z" fill="#DBDBDB"/>
<path d="M259.553 143.408L254.81 146.336L256.621 156.896L262.516 157.712L260.597 163.6C260.597 163.6 266.906 178.112 267.996 180.576C269.085 183.04 272.094 207.136 272.094 207.136C272.094 207.136 271.388 181.04 270.559 177.728C269.73 174.416 265.34 153.328 259.553 143.408Z" fill="#EEF3F7"/>
<path d="M285.848 164.424C286.494 162.219 285.48 159.941 283.582 159.337C281.685 158.733 279.623 160.032 278.977 162.238C278.331 164.444 279.345 166.721 281.242 167.325C283.14 167.929 285.202 166.63 285.848 164.424Z" fill="#9E9E9E"/>
<path d="M287.582 186.976L292.54 165.504L318.359 156.544L307.476 203.232L282.256 209.984L287.582 186.976Z" fill="#63CEBC"/>
<path d="M277.298 192C277.298 192 283.069 183.664 284.482 183.024C285.894 182.384 289.225 181.008 290.345 181.424C291.466 181.84 289.977 184.8 289.977 184.8C289.977 184.8 301.72 183.12 302.763 184.176C303.807 185.232 301.044 189.104 298.619 191.344C296.194 193.584 280.199 199.456 280.199 199.456L277.298 192Z" fill="#FFB7A2"/>
<path d="M265.724 189.44C262.039 190.54 258.292 191.396 254.503 192C253.29 192 251.817 191.68 251.433 190.4C251.311 189.948 251.279 189.474 251.341 189.008C251.66 183.67 252.3 178.358 253.26 173.104C253.966 168.4 258.202 167.984 255.961 163.6C252.615 157.088 250.497 148.288 248.025 152.288C243.942 158.912 235.592 177.168 235.3 184.784C234.318 210.656 240.366 211.76 248.747 211.504C257.128 211.248 282.655 204.704 282.87 201.168C283.008 198.912 281.105 192.496 278.986 188.288C278.05 186.576 271.695 187.904 265.724 189.44Z" fill="#DBDBDB"/>
<path d="M281.534 160.752C281.872 160.512 281.258 138.24 268.917 139.584C256.575 140.928 257.588 150.464 258.049 155.376L256.069 155.664C256.069 155.664 253.751 138.64 269.515 138.592C285.28 138.544 282.716 162.128 282.716 162.128" fill="#9E9E9E"/>
<path d="M278.986 128.304C280.103 127.631 281.017 126.648 281.627 125.464C282.237 124.28 282.519 122.942 282.44 121.6C282.44 116.496 274.857 112.656 271.695 112.192C267.673 111.6 254.257 113.344 253.444 123.776C252.861 131.04 257.634 143.936 261.119 144.032" fill="#4A2B0F"/>
<path d="M260.536 136.816C260.879 135.194 261.304 133.591 261.81 132.016C261.984 131.472 262.168 130.939 262.362 130.416C263.314 127.84 264.772 128.608 266.967 128.608C268.691 128.648 270.413 128.465 272.094 128.064C274.665 127.369 277.125 126.291 279.401 124.864C279.738 130.464 279.953 146.896 271.219 148.304C265.908 149.168 263.007 146.976 261.38 144.352C261.088 141.792 260.812 139.312 260.536 136.816Z" fill="#F0B387"/>
<path d="M262.485 136.16C262.485 136.16 260.367 130.576 258.755 133.344C256.974 136.432 260.797 138.592 260.797 138.592" fill="#F0B387"/>
<path d="M281.126 135.266C281.8 132.967 280.847 130.626 278.998 130.038C277.15 129.45 275.105 130.836 274.432 133.135C273.758 135.434 274.711 137.774 276.56 138.363C278.408 138.951 280.453 137.564 281.126 135.266Z" stroke="#42210B" stroke-width="0.25" stroke-miterlimit="10"/>
<path d="M271.684 137.661C272.358 135.362 271.405 133.022 269.556 132.433C267.708 131.845 265.663 133.231 264.99 135.53C264.317 137.829 265.269 140.169 267.118 140.758C268.966 141.346 271.011 139.96 271.684 137.661Z" stroke="#42210B" stroke-width="0.25" stroke-miterlimit="10"/>
<path d="M265.002 135.536L258.049 130.608" stroke="#42210B" stroke-width="0.25" stroke-miterlimit="10"/>
<path d="M274.028 135.296C274.028 135.296 272.355 135.296 271.895 135.904" stroke="#42210B" stroke-width="0.25" stroke-miterlimit="10"/>
<path d="M258.064 176.272C256.161 176.272 253.122 176.272 251.494 175.152C249.867 174.032 250.128 172.544 250.297 170.576C250.681 166 251.034 157.52 256.069 155.664C260.459 154.064 264.158 157.392 265.724 161.392C266.737 164 268.395 168.256 267.765 171.184C267.274 173.488 264.88 174.72 262.946 175.6C262.577 175.76 262.27 175.216 262.639 175.04C264.895 174.016 267.244 172.64 267.151 169.76C266.938 167.254 266.369 164.796 265.463 162.464C263.928 158.176 259.952 154.192 255.485 156.704C251.832 158.752 251.418 166.016 251.003 169.76C250.727 172.208 250.435 173.792 253.045 174.992C254.675 175.504 256.379 175.715 258.08 175.616C258.479 175.616 258.479 176.272 258.08 176.256L258.064 176.272Z" fill="#4D4D4D"/>
<path d="M264.02 174.688C264.02 175.04 264.481 175.616 264.02 175.856C263.56 176.096 262.055 176.784 261.917 176.272C261.779 175.76 261.549 174.976 261.917 174.672C262.285 174.368 264.02 173.52 264.02 174.688Z" fill="#4A2B0F"/>
<path d="M258.878 175.792C258.878 176.128 259.139 176.8 258.632 176.928C258.126 177.056 256.529 177.392 256.499 176.928C256.468 176.464 256.406 175.584 256.821 175.328C257.235 175.072 259.123 174.656 258.878 175.792Z" fill="#4A2B0F"/>
<path d="M265.555 186.848C264.02 187.328 262.592 187.76 261.073 188.112C259.553 188.464 257.22 189.296 255.854 188.928C254.488 188.56 254.933 186.128 255.025 184.848C255.176 182.897 255.442 180.957 255.823 179.04C256.023 178.032 254.534 177.6 254.288 178.608C253.818 180.944 253.51 183.313 253.367 185.696C253.367 187.072 252.814 189.248 254.119 190.16C255.424 191.072 256.882 190.4 258.08 190.16C260.725 189.775 263.334 189.154 265.877 188.304C266.952 188.08 266.553 186.528 265.555 186.848Z" fill="#9E9E9E"/>
<defs>
<linearGradient id="paint0_linear" x1="223.051" y1="393.728" x2="280.758" y2="345.73" gradientUnits="userSpaceOnUse">
<stop stop-color="white" stop-opacity="0"/>
<stop offset="1" stop-color="#F15A24"/>
</linearGradient>
<linearGradient id="paint1_linear" x1="28012.2" y1="14986.1" x2="30430.3" y2="11989.2" gradientUnits="userSpaceOnUse">
<stop stop-color="white" stop-opacity="0"/>
<stop offset="1" stop-color="#F15A24"/>
</linearGradient>
<linearGradient id="paint2_linear" x1="48590.4" y1="27278.6" x2="49989" y2="22378" gradientUnits="userSpaceOnUse">
<stop stop-color="white" stop-opacity="0"/>
<stop offset="1" stop-color="#F15A24"/>
</linearGradient>
</defs>
</svg>
