<svg width="613" height="345" viewBox="0 0 613 345" fill="none" xmlns="http://www.w3.org/2000/svg">
<path d="M1.24349 30.3992C7.43632 79.3189 -7.38022 141.17 42.3996 150.082C82.779 157.31 88.3829 84.1483 128.713 91.6321C174.024 100.04 137.844 177.293 180.158 195.171C220.696 212.299 247.514 152.332 289.336 166.225C338.734 182.634 303.563 275.902 355.644 279.227C392.171 281.56 398.848 225.839 435.098 230.798C483.663 237.441 435.838 331.097 483.113 343.8C523.825 354.74 537.786 287.046 579.144 295.371C597.521 299.069 606.382 310.568 613 324.735V0H0.456182C-0.339386 9.61547 -0.105103 19.746 1.24349 30.3992Z" fill="white"/>
</svg>
